<svg xmlns="http://www.w3.org/2000/svg" xmlns:xlink="http://www.w3.org/1999/xlink" width="286" height="84" viewBox="0 0 286 84"><defs><path id="9313a" d="M1581.94 1274.42c0-.8-.22-1.43-.67-1.88a5.19 5.19 0 0 0-2.1-1.12c-.5-.16-.88-.3-1.13-.41a1.37 1.37 0 0 1-.53-.37.82.82 0 0 1-.14-.5c0-.3.1-.52.33-.68.23-.16.53-.24.93-.24.73 0 1.41.27 2.03.79l1.02-1.2a4.34 4.34 0 0 0-2.33-1.14v-2.07h-1.6v2.06a3.4 3.4 0 0 0-1.91.89 2.35 2.35 0 0 0-.73 1.75c0 .7.22 1.28.65 1.72a5.3 5.3 0 0 0 2.2 1.17c.45.14.8.27 1.04.4.25.12.41.26.5.42.1.15.15.34.15.58 0 .35-.13.63-.4.84-.26.2-.61.3-1.07.3-.88 0-1.65-.3-2.33-.93l-1.13 1.23c.8.77 1.8 1.21 3.04 1.31v2.13h1.6v-2.2c.8-.18 1.44-.51 1.9-1.01.46-.5.68-1.11.68-1.84z"/><path id="9313b" d="M1660.58 1217.85h-4.26c0 1.18.95 2.15 2.13 2.15 1.17 0 2.13-.97 2.13-2.15 0-1.19 0 0 0 0zm-2.13-18.85c-.88 0-1.6.72-1.6 1.62v.73c-3.05.73-4.78 3.49-4.78 6.8v5.39l-2.13 2.15v1.08h17.02v-1.08l-2.13-2.15v-5.39c0-3.3-1.74-6.07-4.78-6.8v-.73c0-.9-.72-1.62-1.6-1.62-.88 0 0 0 0 0z"/><path id="9313c" d="M1402.37 1216.25v-5.71h5.88v4.74c0 .54-.43.97-.97.97zm-1.74-13.5v6.04h-5.88v-5.07c0-.54.43-.97.97-.97zm-7.63 13.3c0 1.08.87 1.95 1.94 1.95h13.12c1.07 0 1.94-.87 1.94-1.94v-13.12c0-1.07-.87-1.94-1.94-1.94h-13.12c-1.07 0-1.94.87-1.94 1.94z"/><path id="9313d" d="M1592 1212.5c3.34 0 10 1.68 10 5v2.5h-20v-2.5c0-3.32 6.66-5 10-5 0 0-3.34 0 0 0zm0-12.5a5 5 0 1 1 0 10 5 5 0 0 1 0-10s-2.76 0 0 0z"/><path id="9313e" d="M1397.09 1273.72l-.63-.67-3 3.16c-.39.4-1.01.4-1.4 0l-3.03-3.2-3.3 3.47c-.38.4-1 .4-1.4 0a1.07 1.07 0 0 1 0-1.46l4-4.2c.39-.4 1-.4 1.4 0l3.03 3.2 2.3-2.43-.71-.75c-.26-.27-.14-.74.21-.84l3.74-1.05c.35-.1.68.24.58.61l-1 3.93c-.1.37-.54.5-.8.23"/><path id="9313f" d="M1446.34 1269.26a1.1 1.1 0 0 0 0 1.48l4 4.24c.38.41 1 .41 1.38 0l3.04-3.23 2.3 2.46-.71.76c-.26.27-.14.74.21.84l3.74 1.06c.35.1.68-.24.58-.61l-1-3.97c-.1-.38-.54-.5-.8-.23l-.62.67-3-3.19c-.39-.4-1.01-.4-1.4 0l-3.03 3.23-3.3-3.5a.95.95 0 0 0-.7-.31c-.25 0-.5.1-.7.3z"/><path id="9313g" d="M1540 1219h-14a2 2 0 0 1-2-2.02v-10.63c0-.65.31-1.26.84-1.64l7.58-5.46a1 1 0 0 1 1.16 0l7.58 5.46c.53.38.84.99.84 1.64v10.63a2 2 0 0 1-2 2.02"/><path id="9313h" d="M1465.51 1213.4l-3.47 5.38a2.17 2.17 0 0 1-2.7.83 2.28 2.28 0 0 1-1.34-2.09v-15.9c0-1 .8-1.82 1.8-1.82h11.4c1 0 1.8.81 1.8 1.81v15.89c0 .91-.53 1.73-1.34 2.09-.98.43-2.11.08-2.7-.83z"/><path id="9313i" d="M1515.6 1265.68v2.73a2.2 2.2 0 0 1-1.9 2.13v8.25c0 .64-.54 1.16-1.22 1.16a1.2 1.2 0 0 1-1.22-1.16v-8.25a2.2 2.2 0 0 1-1.93-2.13v-2.7a.6.6 0 0 1 .62-.59.6.6 0 0 1 .6.58v2.22h1.32v-2.24a.6.6 0 0 1 .6-.58.6.6 0 0 1 .62.58v2.24h1.29v-2.24a.6.6 0 0 1 .6-.58.6.6 0 0 1 .62.58zm6.67.1v13.01a1.2 1.2 0 0 1-1.23 1.16 1.2 1.2 0 0 1-1.22-1.16v-4.69l-1.77-.01c-.38 0-.7-.3-.67-.67.24-3.54 2.34-6.49 3.7-8.05.4-.46 1.19-.19 1.19.4z"/></defs><g><g transform="translate(-1382 -1197)"><g><use fill="#fff" xlink:href="#9313a"/></g><g><use fill="#fff" xlink:href="#9313b"/></g><g><use fill="#fff" xlink:href="#9313c"/></g><g><use fill="#fff" xlink:href="#9313d"/></g><g><use fill="#fff" xlink:href="#9313e"/></g><g><use fill="#fff" xlink:href="#9313f"/></g><g><use fill="#fff" xlink:href="#9313g"/></g><g><use fill="#fff" xlink:href="#9313h"/></g></g><g transform="translate(-1382 -1197)"><use fill="#fff" xlink:href="#9313i"/></g></g></svg>